<svg width="959" height="300" viewBox="0 0 959 300" fill="none" xmlns="http://www.w3.org/2000/svg">
<path d="M376.936 244.231L365.416 228.743C362.003 229.426 358.675 229.767 355.432 229.767C346.984 229.767 339.219 227.804 332.136 223.879C325.139 219.954 319.549 214.492 315.368 207.495C311.272 200.412 309.224 192.476 309.224 183.687C309.224 174.898 311.272 167.004 315.368 160.007C319.549 153.01 325.139 147.548 332.136 143.623C339.219 139.698 346.984 137.735 355.432 137.735C363.88 137.735 371.603 139.698 378.6 143.623C385.683 147.548 391.229 153.01 395.24 160.007C399.336 167.004 401.384 174.898 401.384 183.687C401.384 191.367 399.805 198.407 396.648 204.807C393.576 211.122 389.267 216.37 383.72 220.551L403.432 244.231H376.936ZM331.624 183.687C331.624 191.623 333.757 197.98 338.024 202.759C342.376 207.452 348.179 209.799 355.432 209.799C362.6 209.799 368.317 207.41 372.584 202.631C376.936 197.852 379.112 191.538 379.112 183.687C379.112 175.751 376.936 169.436 372.584 164.743C368.317 159.964 362.6 157.575 355.432 157.575C348.179 157.575 342.376 159.922 338.024 164.615C333.757 169.308 331.624 175.666 331.624 183.687ZM484.339 157.447V228.871H462.451V219.143C460.232 222.3 457.203 224.86 453.363 226.823C449.608 228.7 445.427 229.639 440.819 229.639C435.358 229.639 430.536 228.444 426.355 226.055C422.174 223.58 418.931 220.039 416.627 215.431C414.323 210.823 413.171 205.404 413.171 199.175V157.447H434.931V196.231C434.931 201.01 436.168 204.722 438.643 207.367C441.118 210.012 444.446 211.335 448.627 211.335C452.894 211.335 456.264 210.012 458.739 207.367C461.214 204.722 462.451 201.01 462.451 196.231V157.447H484.339ZM495.709 193.031C495.709 185.692 497.074 179.25 499.805 173.703C502.621 168.156 506.418 163.89 511.197 160.903C515.976 157.916 521.309 156.423 527.197 156.423C532.232 156.423 536.626 157.447 540.381 159.495C544.221 161.543 547.165 164.231 549.213 167.559V157.447H571.101V228.871H549.213V218.759C547.08 222.087 544.093 224.775 540.253 226.823C536.498 228.871 532.104 229.895 527.069 229.895C521.266 229.895 515.976 228.402 511.197 225.415C506.418 222.343 502.621 218.034 499.805 212.487C497.074 206.855 495.709 200.37 495.709 193.031ZM549.213 193.159C549.213 187.698 547.677 183.388 544.605 180.231C541.618 177.074 537.949 175.495 533.597 175.495C529.245 175.495 525.533 177.074 522.461 180.231C519.474 183.303 517.981 187.57 517.981 193.031C517.981 198.492 519.474 202.844 522.461 206.087C525.533 209.244 529.245 210.823 533.597 210.823C537.949 210.823 541.618 209.244 544.605 206.087C547.677 202.93 549.213 198.62 549.213 193.159ZM630.456 156.679C638.819 156.679 645.475 159.41 650.424 164.871C655.459 170.247 657.976 177.671 657.976 187.143V228.871H636.216V190.087C636.216 185.308 634.979 181.596 632.504 178.951C630.029 176.306 626.701 174.983 622.52 174.983C618.339 174.983 615.011 176.306 612.536 178.951C610.061 181.596 608.824 185.308 608.824 190.087V228.871H586.936V157.447H608.824V166.919C611.043 163.762 614.029 161.287 617.784 159.495C621.539 157.618 625.763 156.679 630.456 156.679ZM712.994 210.311V228.871H701.858C693.922 228.871 687.735 226.951 683.298 223.111C678.861 219.186 676.642 212.828 676.642 204.039V175.623H667.938V157.447H676.642V140.039H698.53V157.447H712.866V175.623H698.53V204.295C698.53 206.428 699.042 207.964 700.066 208.903C701.09 209.842 702.797 210.311 705.186 210.311H712.994ZM795.714 157.447V228.871H773.826V219.143C771.607 222.3 768.578 224.86 764.738 226.823C760.983 228.7 756.802 229.639 752.194 229.639C746.733 229.639 741.911 228.444 737.73 226.055C733.549 223.58 730.306 220.039 728.002 215.431C725.698 210.823 724.546 205.404 724.546 199.175V157.447H746.306V196.231C746.306 201.01 747.543 204.722 750.018 207.367C752.493 210.012 755.821 211.335 760.002 211.335C764.269 211.335 767.639 210.012 770.114 207.367C772.589 204.722 773.826 201.01 773.826 196.231V157.447H795.714ZM902.572 156.679C911.447 156.679 918.487 159.367 923.692 164.743C928.983 170.119 931.628 177.586 931.628 187.143V228.871H909.868V190.087C909.868 185.479 908.631 181.938 906.156 179.463C903.767 176.903 900.439 175.623 896.172 175.623C891.905 175.623 888.535 176.903 886.06 179.463C883.671 181.938 882.476 185.479 882.476 190.087V228.871H860.716V190.087C860.716 185.479 859.479 181.938 857.004 179.463C854.615 176.903 851.287 175.623 847.02 175.623C842.753 175.623 839.383 176.903 836.908 179.463C834.519 181.938 833.324 185.479 833.324 190.087V228.871H811.436V157.447H833.324V166.407C835.543 163.42 838.444 161.074 842.028 159.367C845.612 157.575 849.665 156.679 854.188 156.679C859.564 156.679 864.343 157.831 868.524 160.135C872.791 162.439 876.119 165.724 878.508 169.991C880.983 166.066 884.353 162.866 888.62 160.391C892.887 157.916 897.537 156.679 902.572 156.679Z" fill="#DCB900"/>
<path fill-rule="evenodd" clip-rule="evenodd" d="M150.129 280.129C191.714 280.129 228.743 260.622 252.566 230.26L221.076 218.448C203.147 237.027 177.987 248.583 150.129 248.583C95.6833 248.583 51.5464 204.446 51.5464 150C51.5464 142.115 52.4722 134.445 54.2211 127.095L27.8996 105.248C22.7891 119.202 20 134.275 20 150C20 221.868 78.2607 280.129 150.129 280.129ZM262.095 216.351C260.857 218.434 259.563 220.481 258.215 222.487L230.809 206.664C232.201 204.686 233.522 202.655 234.768 200.574L262.095 216.351ZM266.749 207.8C275.396 190.386 280.258 170.761 280.258 150C280.258 78.1318 221.997 19.8711 150.129 19.8711C106.074 19.8711 67.1329 41.763 43.5899 75.2616L74.5389 86.714C92.6227 65.1372 119.774 51.4175 150.129 51.4175C204.575 51.4175 248.711 95.5544 248.711 150C248.711 163.102 246.155 175.607 241.515 187.044L266.749 207.8ZM64.009 101.986L36.6821 86.2086C35.4959 88.3135 34.3666 90.4548 33.2963 92.6304L60.7027 108.453C61.7271 106.252 62.8304 104.095 64.009 101.986Z" fill="url(#paint0_linear_10_11)"/>
<path d="M105.515 136.442C105.642 131.682 109.108 127.672 113.798 126.856L116.216 126.436C118.615 126.019 121.084 126.492 123.16 127.765L329.637 254.487C330.768 255.181 331.618 256.253 332.037 257.513V257.513C333.656 262.389 328.438 266.711 323.949 264.212L110.647 145.447C107.393 143.635 105.415 140.165 105.515 136.442V136.442Z" fill="#DCB900"/>
<defs>
<linearGradient id="paint0_linear_10_11" x1="68.5" y1="111.371" x2="251.5" y2="224.371" gradientUnits="userSpaceOnUse">
<stop stop-color="#4600A0"/>
<stop offset="1" stop-color="#DCB900"/>
</linearGradient>
</defs>
</svg>
