<svg width="341" height="300" viewBox="0 0 341 300" fill="none" xmlns="http://www.w3.org/2000/svg">
<path fill-rule="evenodd" clip-rule="evenodd" d="M140.458 280.129C182.043 280.129 219.072 260.622 242.895 230.26L211.405 218.448C193.476 237.027 168.316 248.583 140.458 248.583C86.0124 248.583 41.8755 204.446 41.8755 150C41.8755 142.115 42.8013 134.445 44.5502 127.095L18.2287 105.248C13.1182 119.202 10.3291 134.275 10.3291 150C10.3291 221.868 68.5898 280.129 140.458 280.129ZM252.424 216.351C251.187 218.434 249.893 220.481 248.544 222.487L221.138 206.664C222.53 204.686 223.851 202.655 225.097 200.574L252.424 216.351ZM257.078 207.8C265.725 190.386 270.587 170.761 270.587 150C270.587 78.1318 212.326 19.8711 140.458 19.8711C96.4035 19.8711 57.4621 41.763 33.919 75.2616L64.868 86.714C82.9518 65.1372 110.103 51.4175 140.458 51.4175C194.904 51.4175 239.041 95.5544 239.041 150C239.041 163.102 236.485 175.607 231.844 187.044L257.078 207.8ZM54.3381 101.986L27.0112 86.2086C25.825 88.3135 24.6957 90.4548 23.6254 92.6304L51.0318 108.453C52.0562 106.252 53.1595 104.095 54.3381 101.986Z" fill="url(#paint0_linear_10_11)"/>
<path d="M95.845 136.442C95.9725 131.682 99.4379 127.672 104.129 126.856L106.546 126.436C108.945 126.019 111.414 126.492 113.49 127.765L319.967 254.487C321.098 255.181 321.948 256.253 322.367 257.513V257.513C323.986 262.389 318.768 266.711 314.279 264.212L100.977 145.447C97.7227 143.635 95.7452 140.165 95.845 136.442V136.442Z" fill="#DCB900"/>
<defs>
<linearGradient id="paint0_linear_10_11" x1="58.8291" y1="111.371" x2="241.829" y2="224.371" gradientUnits="userSpaceOnUse">
<stop stop-color="#4600A0"/>
<stop offset="1" stop-color="#DCB900"/>
</linearGradient>
</defs>
</svg>
