<svg width="457" height="365" viewBox="0 0 457 365" fill="none" xmlns="http://www.w3.org/2000/svg">
<path fill-rule="evenodd" clip-rule="evenodd" d="M283.344 271.768C253.577 304.673 210.539 325.347 162.673 325.347C72.8313 325.347 0 252.515 0 162.673C0 72.8313 72.8313 0 162.673 0C252.515 0 325.347 72.8313 325.347 162.673C325.347 194.711 316.085 224.586 300.093 249.766L457 364.327L283.344 271.768ZM242.449 249.971C218.081 272.522 185.48 286.305 149.66 286.305C74.1925 286.305 13.0142 225.127 13.0142 149.659C13.0142 74.1921 74.1925 13.0138 149.66 13.0138C225.127 13.0138 286.305 74.1921 286.305 149.659C286.305 176.975 278.29 202.419 264.484 223.767L221.304 192.24C216.392 188.654 209.443 190.246 206.583 195.613L196.658 214.233C194.06 219.107 195.906 225.164 200.779 227.761L242.449 249.971Z" fill="url(#paint0_linear_10_2)"/>
<defs>
<linearGradient id="paint0_linear_10_2" x1="146.445" y1="135.73" x2="282.175" y2="257.172" gradientUnits="userSpaceOnUse">
<stop stop-color="#4600A0"/>
<stop offset="1" stop-color="#DCB900"/>
</linearGradient>
</defs>
</svg>
