<svg width="872" height="365" viewBox="0 0 872 365" fill="none" xmlns="http://www.w3.org/2000/svg">
<path d="M422.776 147.088V218H404.728V209.04C402.424 212.112 399.395 214.544 395.64 216.336C391.971 218.043 387.96 218.896 383.608 218.896C378.061 218.896 373.155 217.744 368.888 215.44C364.621 213.051 361.251 209.595 358.776 205.072C356.387 200.464 355.192 195.003 355.192 188.688V147.088H373.112V186.128C373.112 191.76 374.52 196.112 377.336 199.184C380.152 202.171 383.992 203.664 388.856 203.664C393.805 203.664 397.688 202.171 400.504 199.184C403.32 196.112 404.728 191.76 404.728 186.128V147.088H422.776ZM435.849 182.288C435.849 175.12 437.257 168.763 440.073 163.216C442.974 157.669 446.857 153.403 451.721 150.416C456.67 147.429 462.174 145.936 468.233 145.936C473.524 145.936 478.132 147.003 482.057 149.136C486.068 151.269 489.268 153.957 491.657 157.2V147.088H509.705V218H491.657V207.632C489.353 210.96 486.153 213.733 482.057 215.952C478.046 218.085 473.396 219.152 468.105 219.152C462.132 219.152 456.67 217.616 451.721 214.544C446.857 211.472 442.974 207.163 440.073 201.616C437.257 195.984 435.849 189.541 435.849 182.288ZM491.657 182.544C491.657 178.192 490.804 174.48 489.097 171.408C487.39 168.251 485.086 165.861 482.185 164.24C479.284 162.533 476.169 161.68 472.841 161.68C469.513 161.68 466.441 162.491 463.625 164.112C460.809 165.733 458.505 168.123 456.713 171.28C455.006 174.352 454.153 178.021 454.153 182.288C454.153 186.555 455.006 190.309 456.713 193.552C458.505 196.709 460.809 199.141 463.625 200.848C466.526 202.555 469.598 203.408 472.841 203.408C476.169 203.408 479.284 202.597 482.185 200.976C485.086 199.269 487.39 196.88 489.097 193.808C490.804 190.651 491.657 186.896 491.657 182.544ZM566.503 146.064C574.951 146.064 581.778 148.752 586.983 154.128C592.188 159.419 594.791 166.843 594.791 176.4V218H576.871V178.832C576.871 173.2 575.463 168.891 572.647 165.904C569.831 162.832 565.991 161.296 561.127 161.296C556.178 161.296 552.252 162.832 549.351 165.904C546.535 168.891 545.127 173.2 545.127 178.832V218H527.207V147.088H545.127V155.92C547.516 152.848 550.546 150.459 554.215 148.752C557.97 146.96 562.066 146.064 566.503 146.064ZM632.696 161.808V196.112C632.696 198.501 633.251 200.251 634.36 201.36C635.555 202.384 637.517 202.896 640.248 202.896H648.568V218H637.304C622.2 218 614.648 210.661 614.648 195.984V161.808H606.2V147.088H614.648V129.552H632.696V147.088H648.568V161.808H632.696ZM728.401 147.088V218H710.353V209.04C708.049 212.112 705.02 214.544 701.265 216.336C697.596 218.043 693.585 218.896 689.233 218.896C683.686 218.896 678.78 217.744 674.513 215.44C670.246 213.051 666.876 209.595 664.401 205.072C662.012 200.464 660.817 195.003 660.817 188.688V147.088H678.737V186.128C678.737 191.76 680.145 196.112 682.961 199.184C685.777 202.171 689.617 203.664 694.481 203.664C699.43 203.664 703.313 202.171 706.129 199.184C708.945 196.112 710.353 191.76 710.353 186.128V147.088H728.401ZM834.146 146.064C842.85 146.064 849.847 148.752 855.138 154.128C860.514 159.419 863.202 166.843 863.202 176.4V218H845.282V178.832C845.282 173.285 843.874 169.061 841.058 166.16C838.242 163.173 834.402 161.68 829.538 161.68C824.674 161.68 820.791 163.173 817.89 166.16C815.074 169.061 813.666 173.285 813.666 178.832V218H795.746V178.832C795.746 173.285 794.338 169.061 791.522 166.16C788.706 163.173 784.866 161.68 780.002 161.68C775.053 161.68 771.127 163.173 768.226 166.16C765.41 169.061 764.002 173.285 764.002 178.832V218H746.082V147.088H764.002V155.664C766.306 152.677 769.25 150.331 772.834 148.624C776.503 146.917 780.514 146.064 784.866 146.064C790.413 146.064 795.362 147.259 799.714 149.648C804.066 151.952 807.437 155.28 809.826 159.632C812.13 155.536 815.458 152.251 819.81 149.776C824.247 147.301 829.026 146.064 834.146 146.064Z" fill="#DCB900"/>
<path fill-rule="evenodd" clip-rule="evenodd" d="M283.344 271.768C253.577 304.673 210.539 325.347 162.673 325.347C72.8313 325.347 0 252.515 0 162.673C0 72.8313 72.8313 0 162.673 0C252.515 0 325.347 72.8313 325.347 162.673C325.347 194.711 316.085 224.586 300.093 249.766L457 364.327L283.344 271.768ZM242.449 249.971C218.081 272.522 185.48 286.305 149.66 286.305C74.1925 286.305 13.0142 225.127 13.0142 149.659C13.0142 74.1921 74.1925 13.0138 149.66 13.0138C225.127 13.0138 286.305 74.1921 286.305 149.659C286.305 176.975 278.29 202.419 264.484 223.767L221.304 192.24C216.392 188.654 209.443 190.246 206.583 195.613L196.658 214.233C194.06 219.107 195.906 225.164 200.779 227.761L242.449 249.971Z" fill="url(#paint0_linear_10_2)"/>
<defs>
<linearGradient id="paint0_linear_10_2" x1="146.445" y1="135.73" x2="282.175" y2="257.172" gradientUnits="userSpaceOnUse">
<stop stop-color="#4600A0"/>
<stop offset="1" stop-color="#DCB900"/>
</linearGradient>
</defs>
</svg>
