<svg width="312" height="261" viewBox="0 0 312 261" fill="none" xmlns="http://www.w3.org/2000/svg">
<path fill-rule="evenodd" clip-rule="evenodd" d="M130.129 260.258C171.714 260.258 208.743 240.751 232.566 210.389L201.076 198.577C183.147 217.156 157.987 228.711 130.129 228.711C75.6833 228.711 31.5464 184.575 31.5464 130.129C31.5464 122.244 32.4722 114.574 34.2211 107.224L7.8996 85.3769C2.78911 99.331 0 114.404 0 130.129C0 201.997 58.2607 260.258 130.129 260.258ZM242.095 196.48C240.857 198.563 239.563 200.61 238.215 202.616L210.809 186.793C212.201 184.815 213.522 182.784 214.768 180.702L242.095 196.48ZM246.749 187.929C255.396 170.515 260.258 150.89 260.258 130.129C260.258 58.2607 201.997 0 130.129 0C86.0744 0 47.1329 21.8919 23.5899 55.3905L54.5389 66.8429C72.6227 45.2662 99.7736 31.5464 130.129 31.5464C184.575 31.5464 228.711 75.6833 228.711 130.129C228.711 143.231 226.155 155.736 221.515 167.173L246.749 187.929ZM44.009 82.1147L16.6821 66.3375C15.4959 68.4425 14.3666 70.5838 13.2963 72.7593L40.7027 88.5824C41.7271 86.3811 42.8304 84.224 44.009 82.1147Z" fill="url(#paint0_linear_4_394)"/>
<path d="M89.3133 113.871C89.3467 109.11 92.732 105.033 97.4056 104.124L99.5517 103.707C102.099 103.212 104.74 103.727 106.915 105.143L303.515 233.127C306.945 235.36 306.814 240.427 303.273 242.48V242.48C301.56 243.474 299.444 243.467 297.736 242.464L94.2437 122.854C91.1661 121.045 89.2862 117.733 89.3113 114.163L89.3133 113.871Z" fill="url(#paint1_linear_4_394)"/>
<defs>
<linearGradient id="paint0_linear_4_394" x1="55.4864" y1="51" x2="262.43" y2="65.0318" gradientUnits="userSpaceOnUse">
<stop stop-color="#DCB900"/>
<stop offset="1" stop-color="#4600A0"/>
</linearGradient>
<linearGradient id="paint1_linear_4_394" x1="139.217" y1="130.544" x2="324.074" y2="152.921" gradientUnits="userSpaceOnUse">
<stop stop-color="#DCB900"/>
<stop offset="1" stop-color="#4600A0"/>
</linearGradient>
</defs>
</svg>
